<svg xmlns="http://www.w3.org/2000/svg" viewBox="0 0 64 64" fill="none">
  <style>
    .ink { fill: #0A0A0A; }
    @media (prefers-color-scheme: dark) { .ink { fill: #FAFAFA; } }
  </style>
  <path class="ink" transform="rotate(0 32 32)" d="M32 9 C25.5 16 25.5 25 32 29 C38.5 25 38.5 16 32 9 Z"/>
  <path class="ink" transform="rotate(120 32 32)" d="M32 9 C25.5 16 25.5 25 32 29 C38.5 25 38.5 16 32 9 Z"/>
  <path class="ink" transform="rotate(240 32 32)" d="M32 9 C25.5 16 25.5 25 32 29 C38.5 25 38.5 16 32 9 Z"/>
  <path fill="#16A34A" transform="rotate(60 32 32)" d="M32 9 C25.5 16 25.5 25 32 29 C38.5 25 38.5 16 32 9 Z"/>
  <path fill="#16A34A" transform="rotate(180 32 32)" d="M32 9 C25.5 16 25.5 25 32 29 C38.5 25 38.5 16 32 9 Z"/>
  <path fill="#16A34A" transform="rotate(300 32 32)" d="M32 9 C25.5 16 25.5 25 32 29 C38.5 25 38.5 16 32 9 Z"/>
  <circle class="ink" cx="32" cy="32" r="4"/>
</svg>
