<svg xmlns="http://www.w3.org/2000/svg" width="278" height="72" viewBox="0 0 278 72" fill="none">
  <g transform="translate(8 8) scale(0.875)">
    <g transform="rotate(0 32 32)">
    <path d="M32 9 C25.5 16 25.5 25 32 29 C38.5 25 38.5 16 32 9 Z" fill="#0A0A0A"></path></g>
    <g transform="rotate(60 32 32)">
    <path d="M32 9 C25.5 16 25.5 25 32 29 C38.5 25 38.5 16 32 9 Z" fill="#16A34A"></path></g>
    <g transform="rotate(120 32 32)">
    <path d="M32 9 C25.5 16 25.5 25 32 29 C38.5 25 38.5 16 32 9 Z" fill="#0A0A0A"></path></g>
    <g transform="rotate(180 32 32)">
    <path d="M32 9 C25.5 16 25.5 25 32 29 C38.5 25 38.5 16 32 9 Z" fill="#16A34A"></path></g>
    <g transform="rotate(240 32 32)">
    <path d="M32 9 C25.5 16 25.5 25 32 29 C38.5 25 38.5 16 32 9 Z" fill="#0A0A0A"></path></g>
    <g transform="rotate(300 32 32)">
    <path d="M32 9 C25.5 16 25.5 25 32 29 C38.5 25 38.5 16 32 9 Z" fill="#16A34A"></path></g>
    <circle cx="32" cy="32" r="4" fill="#0A0A0A"></circle>
  </g>
  <text x="74" y="48" font-family="Geist, ui-sans-serif, system-ui, sans-serif" font-size="44" font-weight="600" letter-spacing="-1.1" fill="#0A0A0A">Dwellow</text>
</svg>