<svg xmlns="http://www.w3.org/2000/svg" width="64" height="64" viewBox="0 0 64 64" fill="none">
  <g transform="rotate(0 32 32)">
  <path d="M32 9 C25.5 16 25.5 25 32 29 C38.5 25 38.5 16 32 9 Z" fill="#0A0A0A"></path></g>
  <g transform="rotate(60 32 32)">
  <path d="M32 9 C25.5 16 25.5 25 32 29 C38.5 25 38.5 16 32 9 Z" fill="#16A34A"></path></g>
  <g transform="rotate(120 32 32)">
  <path d="M32 9 C25.5 16 25.5 25 32 29 C38.5 25 38.5 16 32 9 Z" fill="#0A0A0A"></path></g>
  <g transform="rotate(180 32 32)">
  <path d="M32 9 C25.5 16 25.5 25 32 29 C38.5 25 38.5 16 32 9 Z" fill="#16A34A"></path></g>
  <g transform="rotate(240 32 32)">
  <path d="M32 9 C25.5 16 25.5 25 32 29 C38.5 25 38.5 16 32 9 Z" fill="#0A0A0A"></path></g>
  <g transform="rotate(300 32 32)">
  <path d="M32 9 C25.5 16 25.5 25 32 29 C38.5 25 38.5 16 32 9 Z" fill="#16A34A"></path></g>
  <circle cx="32" cy="32" r="4" fill="#0A0A0A"></circle>
</svg>